<?xml version="1.0" encoding="UTF-8" standalone="no"?><!DOCTYPE svg PUBLIC "-//W3C//DTD SVG 1.1//EN" "http://www.w3.org/Graphics/SVG/1.1/DTD/svg11.dtd"><!-- Generated by graphviz version 2.40.1 (20161225.0304)
 --><!-- Title: DAG Pages: 1 --><svg xmlns="http://www.w3.org/2000/svg" xmlns:xlink="http://www.w3.org/1999/xlink" width="422pt" height="188pt" viewBox="0.00 0.00 422.00 188.00">
<g id="graph0" class="graph" transform="scale(1 1) rotate(0) translate(4 184)">
<title>DAG</title>
<polygon fill="#ffffff" stroke="transparent" points="-4,4 -4,-184 418,-184 418,4 -4,4"/>
<!-- 1 -->
<g id="node1" class="node">
<title>1</title>
<ellipse fill="none" stroke="#000000" cx="99" cy="-90" rx="27" ry="18"/>
<text text-anchor="middle" x="99" y="-85.8" font-family="Times,serif" font-size="14.00" fill="#000000">1</text>
</g>
<!-- 4 -->
<g id="node2" class="node">
<title>4</title>
<ellipse fill="none" stroke="#000000" cx="63" cy="-18" rx="27" ry="18"/>
<text text-anchor="middle" x="63" y="-13.8" font-family="Times,serif" font-size="14.00" fill="#000000">4</text>
</g>
<!-- 1&#45;&gt;4 -->
<g id="edge1" class="edge">
<title>1-&gt;4</title>
<path fill="none" stroke="#000000" d="M90.2854,-72.5708C86.0403,-64.0807 80.8464,-53.6929 76.1337,-44.2674"/>
<polygon fill="#000000" stroke="#000000" points="79.237,-42.6477 71.6343,-35.2687 72.976,-45.7782 79.237,-42.6477"/>
</g>
<!-- 2 -->
<g id="node3" class="node">
<title>2</title>
<ellipse fill="none" stroke="#000000" cx="171" cy="-90" rx="27" ry="18"/>
<text text-anchor="middle" x="171" y="-85.8" font-family="Times,serif" font-size="14.00" fill="#000000">2</text>
</g>
<!-- 3 -->
<g id="node4" class="node">
<title>3</title>
<ellipse fill="none" stroke="#000000" cx="243" cy="-90" rx="27" ry="18"/>
<text text-anchor="middle" x="243" y="-85.8" font-family="Times,serif" font-size="14.00" fill="#000000">3</text>
</g>
<!-- 5 -->
<g id="node5" class="node">
<title>5</title>
<ellipse fill="none" stroke="#000000" cx="315" cy="-18" rx="27" ry="18"/>
<text text-anchor="middle" x="315" y="-13.8" font-family="Times,serif" font-size="14.00" fill="#000000">5</text>
</g>
<!-- 3&#45;&gt;5 -->
<g id="edge2" class="edge">
<title>3-&gt;5</title>
<path fill="none" stroke="#000000" d="M258.2693,-74.7307C268.197,-64.803 281.3153,-51.6847 292.4363,-40.5637"/>
<polygon fill="#000000" stroke="#000000" points="295.1564,-42.7933 299.7527,-33.2473 290.2067,-37.8436 295.1564,-42.7933"/>
</g>
<!-- 6 -->
<g id="node6" class="node">
<title>6</title>
<ellipse fill="none" stroke="#000000" cx="27" cy="-90" rx="27" ry="18"/>
<text text-anchor="middle" x="27" y="-85.8" font-family="Times,serif" font-size="14.00" fill="#000000">6</text>
</g>
<!-- 6&#45;&gt;4 -->
<g id="edge3" class="edge">
<title>6-&gt;4</title>
<path fill="none" stroke="#000000" d="M35.7146,-72.5708C39.9597,-64.0807 45.1536,-53.6929 49.8663,-44.2674"/>
<polygon fill="#000000" stroke="#000000" points="53.024,-45.7782 54.3657,-35.2687 46.763,-42.6477 53.024,-45.7782"/>
</g>
<!-- 7 -->
<g id="node7" class="node">
<title>7</title>
<ellipse fill="none" stroke="#000000" cx="171" cy="-162" rx="27" ry="18"/>
<text text-anchor="middle" x="171" y="-157.8" font-family="Times,serif" font-size="14.00" fill="#000000">7</text>
</g>
<!-- 7&#45;&gt;2 -->
<g id="edge4" class="edge">
<title>7-&gt;2</title>
<path fill="none" stroke="#000000" d="M171,-143.8314C171,-136.131 171,-126.9743 171,-118.4166"/>
<polygon fill="#000000" stroke="#000000" points="174.5001,-118.4132 171,-108.4133 167.5001,-118.4133 174.5001,-118.4132"/>
</g>
<!-- 8 -->
<g id="node8" class="node">
<title>8</title>
<ellipse fill="none" stroke="#000000" cx="99" cy="-162" rx="27" ry="18"/>
<text text-anchor="middle" x="99" y="-157.8" font-family="Times,serif" font-size="14.00" fill="#000000">8</text>
</g>
<!-- 8&#45;&gt;1 -->
<g id="edge5" class="edge">
<title>8-&gt;1</title>
<path fill="none" stroke="#000000" d="M99,-143.8314C99,-136.131 99,-126.9743 99,-118.4166"/>
<polygon fill="#000000" stroke="#000000" points="102.5001,-118.4132 99,-108.4133 95.5001,-118.4133 102.5001,-118.4132"/>
</g>
<!-- 9 -->
<g id="node9" class="node">
<title>9</title>
<ellipse fill="none" stroke="#000000" cx="315" cy="-90" rx="27" ry="18"/>
<text text-anchor="middle" x="315" y="-85.8" font-family="Times,serif" font-size="14.00" fill="#000000">9</text>
</g>
<!-- 9&#45;&gt;5 -->
<g id="edge6" class="edge">
<title>9-&gt;5</title>
<path fill="none" stroke="#000000" d="M315,-71.8314C315,-64.131 315,-54.9743 315,-46.4166"/>
<polygon fill="#000000" stroke="#000000" points="318.5001,-46.4132 315,-36.4133 311.5001,-46.4133 318.5001,-46.4132"/>
</g>
<!-- 10 -->
<g id="node10" class="node">
<title>10</title>
<ellipse fill="none" stroke="#000000" cx="387" cy="-90" rx="27" ry="18"/>
<text text-anchor="middle" x="387" y="-85.8" font-family="Times,serif" font-size="14.00" fill="#000000">10</text>
</g>
<!-- 10&#45;&gt;5 -->
<g id="edge7" class="edge">
<title>10-&gt;5</title>
<path fill="none" stroke="#000000" d="M371.7307,-74.7307C361.803,-64.803 348.6847,-51.6847 337.5637,-40.5637"/>
<polygon fill="#000000" stroke="#000000" points="339.7933,-37.8436 330.2473,-33.2473 334.8436,-42.7933 339.7933,-37.8436"/>
</g>
<!-- 11 -->
<g id="node11" class="node">
<title>11</title>
<ellipse fill="none" stroke="#000000" cx="27" cy="-162" rx="27" ry="18"/>
<text text-anchor="middle" x="27" y="-157.8" font-family="Times,serif" font-size="14.00" fill="#000000">11</text>
</g>
<!-- 11&#45;&gt;6 -->
<g id="edge8" class="edge">
<title>11-&gt;6</title>
<path fill="none" stroke="#000000" d="M27,-143.8314C27,-136.131 27,-126.9743 27,-118.4166"/>
<polygon fill="#000000" stroke="#000000" points="30.5001,-118.4132 27,-108.4133 23.5001,-118.4133 30.5001,-118.4132"/>
</g>
<!-- 12 -->
<g id="node12" class="node">
<title>12</title>
<ellipse fill="none" stroke="#000000" cx="315" cy="-162" rx="27" ry="18"/>
<text text-anchor="middle" x="315" y="-157.8" font-family="Times,serif" font-size="14.00" fill="#000000">12</text>
</g>
<!-- 12&#45;&gt;9 -->
<g id="edge9" class="edge">
<title>12-&gt;9</title>
<path fill="none" stroke="#000000" d="M315,-143.8314C315,-136.131 315,-126.9743 315,-118.4166"/>
<polygon fill="#000000" stroke="#000000" points="318.5001,-118.4132 315,-108.4133 311.5001,-118.4133 318.5001,-118.4132"/>
</g>
</g>
</svg>